Sinopse e detalhes

Jeremy Coleman (Josh Duhamel) é um bombeiro solitário, que considera seus colegas como sua verdadeira família. Um dia, ao entrar numa loja, ele presencia o assassinato do dono do local e de seu filho. Como única testemunha, ele é convenciado pelo detetive Mike Cella (Bruce Willis) a depor contra o autor dos disparos, o sociopata Neil Hagan (Vincent D'Onofrio). Cella tem motivos pessoais para capturar Hagan, já que no passado matou seu parceiro e a esposa dele. À espera do julgamento, Jeremy entra no programa de proteção à testemunha e, com isso, se muda para Nova Orleans. Só que Hagan está em seu encalço, para evitar que seja condenado e preso.

Format : Matroska
Format version : Version 2
File size : 1.53 GiB
Duration : 1h 37mn
Overall bit rate mode : Variable
Overall bit rate : 2 244 Kbps
Encoded date : UTC 2013-05-31 18:24:57
Writing application : mkvmerge v5.8.0 ('No Sleep / Pillow') built on Sep 2 2012 15:37:04
Writing library : libebml v1.2.3 + libmatroska v1.3.0

Video
ID : 2
Format : AVC
Format/Info : Advanced Video Codec
Format profile : High@L4.0
Format settings, CABAC : Yes
Format settings, ReFrames : 5 frames
Muxing mode : Header stripping
Codec ID : V_MPEG4/ISO/AVC
Duration : 1h 37mn
Bit rate : 2 102 Kbps
Width : 1 920 pixels
Height : 808 pixels
Display aspect ratio : 2.40:1
Frame rate mode : Constant
Frame rate : 23.976 fps
Color space : YUV
Chroma subsampling : 4:2:0
Bit depth : 8 bits
Scan type : Progressive
Bits/(Pixel*Frame) : 0.057
Stream size : 1.40 GiB (92%)
Title : por
Writing library : x264 core 125 r2200 999b753
Encoding settings : cabac=1 / ref=5 / deblock=1:0:0 / analyse=0x3:0x113 / me=hex / subme=7 / psy=1 / psy_rd=1.00:0.00 / mixed_ref=1 / me_range=16 / chroma_me=1 / trellis=1 / 8x8dct=1 / cqm=0 / deadzone=21,11 / fast_pskip=1 / chroma_qp_offset=-2 / threads=6 / lookahead_threads=1 / sliced_threads=0 / nr=0 / decimate=1 / interlaced=0 / bluray_compat=0 / constrained_intra=0 / bframes=8 / b_pyramid=2 / b_adapt=1 / b_bias=0 / direct=1 / weightb=1 / open_gop=0 / weightp=2 / keyint=240 / keyint_min=23 / scenecut=40 / intra_refresh=0 / rc_lookahead=40 / rc=2pass / mbtree=1 / bitrate=2102 / ratetol=1.0 / qcomp=0.60 / qpmin=10 / qpmax=51 / qpstep=4 / cplxblur=20.0 / qblur=0.5 / ip_ratio=1.40 / aq=1:1.00
Language : Portuguese
Default : Yes
Forced : No

Audio
ID : 1
Format : MPEG Audio
Format version : Version 1
Format profile : Layer 3
Mode : Joint stereo
Mode extension : MS Stereo
Muxing mode : Header stripping
Codec ID : A_MPEG/L3
Codec ID/Hint : MP3
Duration : 1h 38mn
Bit rate mode : Variable
Bit rate : 141 Kbps
Channel(s) : 2 channels
Sampling rate : 48.0 KHz
Compression mode : Lossy
Stream size : 98.9 MiB (6%)
Title : Fogo Contra Fogo ( by fantasma)
Writing library : LAME3.92
Encoding settings : -m j -V 4 -q 2 -lowpass 4.1 --abr 141-m j -V 4 -q 2 -lowpass 4.1 --abr 141-m j -V 4 -q 2 -lowpass 4.1 --abr 141
Language : Portuguese
Default : Yes
Forced : No

Text
ID : 3
Format : UTF-8
Codec ID : S_TEXT/UTF8
Codec ID/Info : UTF-8 Plain Text
Title : Credito
Language : Portuguese
Default : Yes
Forced : No